<svg xmlns:dc="http://purl.org/dc/elements/1.1/" xmlns:cc="http://creativecommons.org/ns#"
     xmlns:rdf="http://www.w3.org/1999/02/22-rdf-syntax-ns#" xmlns:svg="http://www.w3.org/2000/svg"
     xmlns="http://www.w3.org/2000/svg" xmlns:sodipodi="http://sodipodi.sourceforge.net/DTD/sodipodi-0.dtd"
     xmlns:inkscape="http://www.inkscape.org/namespaces/inkscape" height="5" width="10" version="1.1" x="0px" y="0px" viewBox="0 0 100 70" fill="currentColor">
    <g transform="translate(0,-966.36219)">
        <path
              d="M 29.96875 25.96875 A 2.0002 2.0002 0 0 0 28.59375 26.59375 L 6.59375 48.59375 A 2.0002 2.0002 0 0 0 6.4375 48.71875 A 2.0002 2.0002 0 0 0 6.59375 51.40625 L 28.5625 73.40625 A 2.0002 2.0002 0 1 0 31.40625 70.59375 L 12.8125 52 L 92 52 A 2.0002 2.0002 0 1 0 92 48 L 12.8125 48 L 31.4375 29.40625 A 2.0002 2.0002 0 0 0 29.96875 25.96875 z "
              transform="translate(0,952.36218)"/>
    </g>
</svg>