<svg xmlns="http://www.w3.org/2000/svg" version="1.1" viewBox="0 0 32 32" x="0px" y="0px" color="currentColor">
    <path d="M16.035 1.146c-0.011-0.001-0.023-0.001-0.036-0.001-0.169 0-0.33 0.038-0.473 0.105l0.007-0.003-14.884 6.87c-0.386 0.181-0.649 0.567-0.649 1.013s0.263 0.832 0.642 1.010l0.007 0.003 14.884 6.87c0.137 0.065 0.298 0.102 0.467 0.102s0.33-0.038 0.474-0.105l-0.007 0.003 14.884-6.87c0.386-0.181 0.649-0.567 0.649-1.013s-0.263-0.832-0.642-1.010l-0.007-0.003-14.884-6.87c-0.127-0.060-0.274-0.097-0.43-0.102zM15.999 3.491l12.221 5.64-12.221 5.641-12.221-5.641 12.221-5.639z"/>
    <path d="M30.923 14.878c-0.008 0-0.018-0.001-0.027-0.001-0.175 0-0.34 0.040-0.487 0.112l0.007-0.003-14.417 6.654-14.417-6.654c-0.137-0.065-0.298-0.102-0.467-0.102-0.617 0-1.116 0.5-1.116 1.116 0 0.447 0.263 0.832 0.642 1.010l0.007 0.003 14.884 6.87c0.137 0.065 0.298 0.102 0.467 0.102s0.33-0.038 0.474-0.105l-0.007 0.003 14.884-6.87c0.394-0.178 0.663-0.567 0.663-1.020 0-0.607-0.485-1.101-1.089-1.116h-0.001z"/>
    <path d="M30.923 21.747c-0.008 0-0.018-0.001-0.027-0.001-0.175 0-0.34 0.040-0.487 0.112l0.007-0.003-14.417 6.654-14.417-6.654c-0.137-0.065-0.298-0.102-0.467-0.102-0.617 0-1.116 0.5-1.116 1.116 0 0.447 0.263 0.832 0.642 1.010l0.007 0.003 14.884 6.87c0.137 0.065 0.298 0.102 0.467 0.102s0.33-0.038 0.474-0.105l-0.007 0.003 14.884-6.87c0.394-0.178 0.663-0.567 0.663-1.020 0-0.607-0.485-1.101-1.089-1.116h-0.001z"/>
</svg>